<svg xmlns="http://www.w3.org/2000/svg" xmlns:xlink="http://www.w3.org/1999/xlink" fill="none" version="1.1" width="27" height="36" viewBox="0 0 27 36"><defs><clipPath id="master_svg0_5_6252"><rect x="0" y="0" width="27" height="36" rx="0"/></clipPath></defs><g clip-path="url(#master_svg0_5_6252)"><g transform="matrix(1,0,0,-1,0,73.40625)"><g><path d="M15.1875,37.546875Q17.0859,39.867185,19.8281,43.804685Q22.5703,47.671925,24.75,51.820325Q26.8594,55.968725,27,59.132825Q26.8594,64.898425,23.0625,68.695325Q19.2656,72.49222499999999,13.5,72.632825Q7.73438,72.49222499999999,3.9375,68.695325Q0.140625,64.898425,0,59.132825Q0.140625,55.968725,2.25,51.820325Q4.42969,47.671925,7.17188,43.804685Q9.91406,39.867185,11.8125,37.546875Q12.5156,36.703125,13.5,36.703125Q14.4844,36.703125,15.1875,37.546875ZM13.5,63.632825Q16.0312,63.562525,17.3672,61.382825Q18.6328,59.132825,17.3672,56.882825Q16.0312,54.703125,13.5,54.632825Q10.9688,54.703125,9.63281,56.882825Q8.36719,59.132825,9.63281,61.382825Q10.9688,63.562525,13.5,63.632825Z" fill="#000000" fill-opacity="1" style="mix-blend-mode:passthrough"/></g></g></g></svg>