<svg xmlns="http://www.w3.org/2000/svg" xmlns:xlink="http://www.w3.org/1999/xlink" fill="none" version="1.1" width="31.5" height="36" viewBox="0 0 31.5 36"><defs><clipPath id="master_svg0_5_6242"><rect x="0" y="0" width="31.5" height="36" rx="0"/></clipPath></defs><g clip-path="url(#master_svg0_5_6242)"><g transform="matrix(1,0,0,-1,0,73.546875)"><g><path d="M29.25,72.7734375Q28.5469,72.8437375,26.4375,71.7890375Q24.2578,70.8046375,22.3594,68.1328375Q20.3906,65.3906375,20.25,60.3984375L20.25,52.5234375Q20.3203,50.6250375,21.5859,49.3593375Q22.8516,48.0937375,24.75,48.0234375L27,48.0234375L27,39.0234375Q27,38.0390575,27.6328,37.4062495Q28.2656,36.7734375,29.25,36.7734375Q30.2344,36.7734375,30.8672,37.4062495Q31.5,38.0390575,31.5,39.0234375L31.5,48.0234375L31.5,55.8984375L31.5,70.5234375Q31.5,71.5078375,30.8672,72.1406375Q30.2344,72.7734375,29.25,72.7734375ZM4.5,71.6484375Q4.42969,72.56253749999999,3.51562,72.7734375Q2.53125,72.7734375,2.25,71.85933750000001L0.140625,62.296837499999995Q0,61.6640375,0,60.9609375Q0.0703125,58.500037500000005,1.61719,56.812537500000005Q3.23438,55.0546375,5.625,54.7734375L5.625,39.0234375Q5.625,38.0390575,6.25781,37.4062495Q6.89062,36.7734375,7.875,36.7734375Q8.85938,36.7734375,9.49219,37.4062495Q10.125,38.0390575,10.125,39.0234375L10.125,54.7734375Q12.5156,55.0546375,14.1328,56.812537500000005Q15.6797,58.500037500000005,15.75,60.9609375Q15.75,61.6640375,15.6094,62.296837499999995L13.5,71.85933750000001Q13.2188,72.7734375,12.2344,72.7734375Q11.3203,72.56253749999999,11.25,71.6484375L11.25,62.2265375Q11.1797,61.5937375,10.5469,61.5234375Q9.98438,61.5937375,9.84375,62.1562375L9,71.7187375Q8.85938,72.7031375,7.875,72.7734375Q6.89062,72.7031375,6.75,71.7187375L5.90625,62.1562375Q5.76562,61.5937375,5.20312,61.5234375Q4.57031,61.5937375,4.5,62.2265375L4.5,71.6484375ZM7.875,60.9609375L7.875,61.0312375L7.875,60.9609375Z" fill="currentColor" fill-opacity="1" style="mix-blend-mode:passthrough"/></g></g></g></svg>