<svg xmlns="http://www.w3.org/2000/svg" xmlns:xlink="http://www.w3.org/1999/xlink" fill="none" version="1.1" width="31.5" height="36" viewBox="0 0 31.5 36"><defs><clipPath id="master_svg0_5_6247"><rect x="0" y="0" width="31.5" height="36" rx="0"/></clipPath></defs><g clip-path="url(#master_svg0_5_6247)"><g transform="matrix(1,0,0,-1,0,73.546875)"><g><path d="M9,72.7734375Q9.98438,72.7734375,10.6172,72.1406375Q11.25,71.5078375,11.25,70.5234375L11.25,68.2734375L20.25,68.2734375L20.25,70.5234375Q20.25,71.5078375,20.8828,72.1406375Q21.5156,72.7734375,22.5,72.7734375Q23.4844,72.7734375,24.1172,72.1406375Q24.75,71.5078375,24.75,70.5234375L24.75,68.2734375L28.125,68.2734375Q29.5312,68.2031375,30.5156,67.2890375Q31.4297,66.3046375,31.5,64.8984375L31.5,61.5234375L0,61.5234375L0,64.8984375Q0.0703125,66.3046375,0.984375,67.2890375Q1.96875,68.2031375,3.375,68.2734375L6.75,68.2734375L6.75,70.5234375Q6.75,71.5078375,7.38281,72.1406375Q8.01562,72.7734375,9,72.7734375ZM0,59.2734375L31.5,59.2734375L0,59.2734375L31.5,59.2734375L31.5,40.1484375Q31.4297,38.7421875,30.5156,37.7578125Q29.5312,36.84375,28.125,36.7734375L3.375,36.7734375Q1.96875,36.84375,0.984375,37.7578125Q0.0703125,38.7421875,0,40.1484375L0,59.2734375ZM4.5,53.6484375L4.5,51.3984375L4.5,53.6484375L4.5,51.3984375Q4.57031,50.3437375,5.625,50.2734375L7.875,50.2734375Q8.92969,50.3437375,9,51.3984375L9,53.6484375Q8.92969,54.7031375,7.875,54.7734375L5.625,54.7734375Q4.57031,54.7031375,4.5,53.6484375ZM13.5,53.6484375L13.5,51.3984375L13.5,53.6484375L13.5,51.3984375Q13.5703,50.3437375,14.625,50.2734375L16.875,50.2734375Q17.9297,50.3437375,18,51.3984375L18,53.6484375Q17.9297,54.7031375,16.875,54.7734375L14.625,54.7734375Q13.5703,54.7031375,13.5,53.6484375ZM23.625,54.7734375Q22.5703,54.7031375,22.5,53.6484375L22.5,51.3984375Q22.5703,50.3437375,23.625,50.2734375L25.875,50.2734375Q26.9297,50.3437375,27,51.3984375L27,53.6484375Q26.9297,54.7031375,25.875,54.7734375L23.625,54.7734375ZM4.5,44.6484375L4.5,42.3984375L4.5,44.6484375L4.5,42.3984375Q4.57031,41.3437475,5.625,41.2734375L7.875,41.2734375Q8.92969,41.3437475,9,42.3984375L9,44.6484375Q8.92969,45.7031275,7.875,45.7734375L5.625,45.7734375Q4.57031,45.7031275,4.5,44.6484375ZM14.625,45.7734375Q13.5703,45.7031275,13.5,44.6484375L13.5,42.3984375Q13.5703,41.3437475,14.625,41.2734375L16.875,41.2734375Q17.9297,41.3437475,18,42.3984375L18,44.6484375Q17.9297,45.7031275,16.875,45.7734375L14.625,45.7734375ZM22.5,44.6484375L22.5,42.3984375L22.5,44.6484375L22.5,42.3984375Q22.5703,41.3437475,23.625,41.2734375L25.875,41.2734375Q26.9297,41.3437475,27,42.3984375L27,44.6484375Q26.9297,45.7031275,25.875,45.7734375L23.625,45.7734375Q22.5703,45.7031275,22.5,44.6484375Z" fill="#000000" fill-opacity="1" style="mix-blend-mode:passthrough"/></g></g></g></svg>